<svg width="50" height="50" xmlns="http://www.w3.org/2000/svg" xmlns:svg="http://www.w3.org/2000/svg">
 <g class="layer">
  <title>Layer 1</title>
  <g id="svg_1">
   <g id="svg_2" transform="translate(0 253.7) scale(0.05 -0.05)">
    <path d="m256.04447,5039.14628c-4.21382,-2.2113 -42.31852,-38.76904 -84.40926,-81.30584c-71.34073,-71.55901 -76.87374,-77.76585 -79.31282,-87.51268c-1.77474,-7.97209 -1.77474,-13.29631 0,-21.05012c2.43908,-9.96512 8.63643,-16.61801 98.14214,-106.342l95.49426,-95.93083l43.86548,0l44.09326,0l-12.63197,-13.74237c-7.08947,-7.75381 -14.17893,-17.06407 -15.95367,-20.82234l-3.32171,-6.87118l-29.24049,0c-22.15102,0 -33.6726,-1.1104 -48.74364,-4.87816c-32.12563,-7.75381 -64.9156,-24.81788 -87.2944,-45.41245l-9.52855,-8.85472l56.71573,-56.71573l56.71573,-56.93402l-5.09644,-9.74683c-6.20684,-11.95814 -6.87118,-34.78299 -1.32868,-45.19416c13.51459,-25.25445 44.08377,-35.44733 69.11993,-23.26142l10.63895,5.09644l50.95495,-50.73666l50.73666,-50.73666l7.97209,8.86421c20.38577,23.04314 36.55773,53.39403 44.97588,84.19098c3.76776,13.51459 5.09644,25.03616 5.5425,49.40798l0.66434,31.67957l9.52855,6.20684c5.31473,3.54948 14.17893,10.85723 19.72144,16.61801c5.31473,5.5425 10.63895,10.19289 11.52157,10.19289c0.88262,0 1.77474,-20.158 1.77474,-44.97588l0,-44.7576l100.35344,-100.15414c54.94099,-55.16877 103.0203,-101.24556 106.342,-102.35595c7.98158,-3.10342 23.92576,-3.10342 31.90735,-0.21828c9.08249,3.53999 159.73603,154.19353 164.83247,165.05076c4.87816,10.41117 5.31473,18.16498 1.54697,30.79695c-2.2113,7.75381 -17.28236,23.92576 -102.35595,109.44542l-99.69859,100.13516l-46.52285,0l-46.52285,0l45.64022,46.08628c56.05139,56.05139 58.2627,59.81916 58.2627,95.70306c0,35.44733 -3.76776,41.65418 -54.72271,92.16307c-48.29758,47.85153 -53.17574,50.50889 -88.17702,50.73666c-19.72144,0 -22.15102,-0.44606 -36.55773,-7.53552c-13.29631,-6.42513 -22.15102,-14.17893 -60.26521,-51.83757l-44.96639,-44.52982l0,46.52285l0,46.52285l-92.38135,92.16307c-62.70429,62.47652 -95.27598,93.49175 -100.80899,95.71255c-11.07551,4.65039 -27.69353,4.20433 -37.22207,-0.88262l0,0zm175.02536,-254.78423l0,-40.98984l-19.49366,-19.49366l-19.27538,-19.27538l-42.09074,0l-42.09074,0l-77.53808,77.53808l-77.53808,77.53808l60.92955,60.92955l60.92955,60.92955l77.98413,-77.98413l78.20242,-78.20242l0,-40.98984l-0.01898,0l-0.00001,0zm387.70936,-346.71953l83.08058,-83.08058l-60.92955,-60.92955l-60.92955,-60.92955l-83.52663,83.52663l-83.74492,83.74492l0,42.09074l0,42.10023l18.16498,18.16498l18.39275,18.39275l43.20114,0l43.20114,0l83.09007,-83.08058l0,0.00001z" id="svg_3"/>
    <path d="m59.7507,4433.4287c-5.5425,-2.43908 -8.19987,-5.97907 -11.73985,-15.95367c-7.75381,-20.158 -11.30329,-37.88641 -12.85025,-62.03046c-6.20684,-102.35595 62.03046,-196.06599 162.62117,-222.64911c21.71446,-5.76079 66.90862,-7.98158 87.94925,-4.4321c25.48222,4.4321 49.40798,13.06853 54.27665,19.49366c6.20684,7.75381 5.76079,16.61801 -1.32868,25.03616c-5.09644,6.20684 -6.87118,6.87118 -14.84328,5.97907c-5.09644,-0.44606 -17.06407,-3.10342 -26.8109,-5.97907c-23.04314,-6.42513 -63.8052,-7.08947 -85.0736,-1.54697c-36.11168,9.74683 -58.70876,22.59708 -84.40926,48.0793c-21.05012,21.05012 -33.6726,41.4264 -43.6472,69.78427c-5.5425,16.39024 -5.97907,20.158 -6.20684,53.16626c0,32.57169 0.44606,37.00379 6.20684,54.72271c6.42513,20.37629 5.97907,25.91879 -1.99302,33.23603c-6.19735,5.31473 -14.39722,6.64341 -22.15102,3.09393l0,0z" id="svg_4"/>
    <path d="m135.07748,4405.51689c-20.38577,-8.41815 -27.91181,-68.45559 -13.51459,-108.55331c14.39722,-40.54378 47.18719,-72.00506 88.84136,-85.51966c30.57866,-9.96512 79.31282,-7.08947 96.59517,5.5425c14.17893,10.19289 9.74683,31.46129 -7.30775,35.89339c-2.65736,0.66434 -11.30329,-0.66434 -19.27538,-2.87565c-55.16877,-15.50761 -108.5628,15.28933 -122.96002,70.67638c-4.21382,16.17196 -4.21382,29.68655 0,44.97588c6.64341,23.92576 6.64341,25.25445 -0.21828,32.78997c-7.08947,7.51654 -15.07105,10.17391 -22.16052,7.07048z" id="svg_5"/>
    <path d="m209.52162,4377.3773c-13.29631,-4.87816 -20.38577,-25.48222 -15.7259,-46.08628c5.76079,-25.91879 26.8109,-44.52982 53.17574,-46.9689c21.71446,-1.99302 36.55773,4.87816 39.2151,18.16498c2.87565,15.7259 -11.52157,27.91181 -27.47524,23.26142c-8.41815,-2.2113 -15.28933,-0.21828 -21.2684,6.42513c-3.53999,3.76776 -3.98605,6.64341 -2.65736,16.8363c1.54697,14.39722 -1.77474,23.26142 -10.85723,27.24747c-6.20684,2.89463 -9.09198,3.11291 -14.40671,1.11989l0,0z" id="svg_6"/>
   </g>
  </g>
 </g>
</svg>
