<?xml version="1.0"?>
<svg xmlns="http://www.w3.org/2000/svg" viewBox="0 0 32 32">
    <path d="M 16 4 C 11.041484 4 7 8.0414839 7 13 C 7 15.856337 8.437568 17.875912 9.75 19.3125 C 10.406216 20.030794 11.053594 20.644277 11.46875 21.125 C 11.883906 21.605723 12 21.916208 12 22 A 1.0001 1.0001 0 0 0 12 22.09375 L 12 25 C 12 26.093063 12.906937 27 14 27 L 15 28 L 17 28 L 18 27 C 19.093063 27 20 26.093063 20 25 L 20 22.3125 A 1.0001 1.0001 0 0 0 20 22.15625 C 20 22.020203 20.147861 21.656609 20.5625 21.15625 C 20.977139 20.655891 21.596455 20.042248 22.25 19.3125 C 23.55709 17.853004 25 15.8342 25 13 C 25 8.0414839 20.958516 4 16 4 z M 16 6 C 19.877484 6 23 9.1225161 23 13 C 23 15.1678 21.94291 16.667996 20.75 18 C 20.153545 18.666002 19.522861 19.244046 19 19.875 C 18.718165 20.2151 18.468951 20.58835 18.28125 21 L 13.78125 21 C 13.584476 20.553541 13.281386 20.174512 12.96875 19.8125 C 12.446406 19.20766 11.843784 18.618706 11.25 17.96875 C 10.062432 16.668838 9 15.196663 9 13 C 9 9.1225161 12.122516 6 16 6 z M 13.96875 9.53125 L 12.53125 10.96875 L 14.5625 13 L 12.53125 15.03125 L 13.96875 16.46875 L 16 14.4375 L 18.03125 16.46875 L 19.46875 15.03125 L 17.4375 13 L 19.46875 10.96875 L 18.03125 9.53125 L 16 11.5625 L 13.96875 9.53125 z M 14 23 L 18 23 L 18 25 L 14 25 L 14 23 z"/>
</svg>
