<svg
   xmlns:dc="http://purl.org/dc/elements/1.1/"
   xmlns:cc="http://creativecommons.org/ns#"
   xmlns:rdf="http://www.w3.org/1999/02/22-rdf-syntax-ns#"
   xmlns:svg="http://www.w3.org/2000/svg"
   xmlns="http://www.w3.org/2000/svg"
   version="1.1"
   id="svg3469"
   height="297"
   width="210">
  <g id="layer1">
    <rect
       style="fill:#FFFFFF;fill-opacity:1;fill-rule:nonzero;stroke:#000000"
	   stroke-dasharray="20,33,41,0"
	   stroke-width="2"
       width="100"
       height="100"
       x="53"
       y="48"
       ry="14" />
    <circle
       style="fill:#FFFFFF;stroke:#000000"
       cy="98"
       cx="-103"
       r="40"
       transform="scale(-1,1)" />
    <circle
       r="5.5"
       cx="102"
       cy="67.5"
       style="fill:#FF0000;fill-opacity:0.9;stroke:#000000" />
    <path
       style="fill:#FF0000;fill-opacity:0.9;stroke:#000000"
       d="m 102,75 c -1,0 -6,0 -6.5,0 -4,0.5 -3.5,21 -3.5,23.5 3.5,1.5 4,-3.5 4.7,-17.2 l 0,18 5,0 0.5,0 5,0 0,-17.8 c 0.5,13.5 1.3,18.5 4.5,17.2 0,-3 0.5,-23.2 -3.5,-23.5 0,0 -5.5,0 -6.5,0 0,0 z" />
    <path
       style="fill:#FF0000;fill-opacity:0.9;stroke:#000000"
       d="m 96.5,101 -2,31 c 7,-1 7,3 7,-24 0,0 0.5,0 0.5,0 0,0 0.5,0 0.5,0 0,27 0,23.5 7,24 l -2,-31 -4.5,0 -1.5,0 -4.5,0 z" />
  </g>
</svg>
