<svg
   xmlns:dc="http://purl.org/dc/elements/1.1/"
   xmlns:cc="http://creativecommons.org/ns#"
   xmlns:rdf="http://www.w3.org/1999/02/22-rdf-syntax-ns#"
   xmlns:svg="http://www.w3.org/2000/svg"
   xmlns="http://www.w3.org/2000/svg"
   version="1.1"
   id="svg3469"
   viewBox="0 0 744.09448819 1052.3622047"
   height="297mm"
   width="210mm">
  <g id="layer1">
    <rect
       style="fill:#FFFFFF;fill-opacity:1;fill-rule:nonzero;stroke:#000000"
	   stroke-dasharray="20,33,41,0"
	   stroke-width="2"
       width="100"
       height="100"
       x="17.680216"
       y="9.887332"
       ry="13.889598" />
    <circle
       style="fill:#FFFFFF;stroke:#000000"
       cy="60.014042"
       cx="-67.567123"
       r="40"
       transform="scale(-1,1)" />
    <g id="g3971" transform="translate(-520,-200)">
      <circle
         style="fill:#00ff00;fill-opacity:1;fill-rule:nonzero;stroke:#000000"
		 stroke-width="10"
         cy="105"
         cx="188"
         r="56"
         transform="matrix(0.1,0,0,0.1,568,217.5)" />
      <path
         d="m 570,260 c 15.1,-23.6 13.7,-24.25 19.35,-24.5 3.3,0.1 3.4,1 9,5.4 7,5.05224 6.38177,5.11871 6.28205,10.66952 -0.0332,6.68091 0.4321,6.18234 -4.88604,8.67521 l 0,-11.2678 -4.68661,-4.18804 0,15.8547 -11.16809,-0.0997 -0.0997,-12.5641 c -9.17378,14.15954 -8.57549,13.36182 -13.76068,11.96581 z"
         style="fill:#00ff00;fill-opacity:1;stroke:#000000" />
      <path
         d="m 584.2,262.2 11,0 c 0,2.49287 0.79772,2.29344 6.58119,13.16239 6.08262,11.20133 6.18234,10.43685 2.69231,16.85185 l -15.05698,-27.02279 c -14.25926,27.58784 -12.46439,26.75688 -20.34188,26.22507 l 7.87749,-14.75784 c 6.74739,-12.19848 7.11301,-12.23171 7.37892,-14.45868 z"
         style="fill:#00ff00;fill-opacity:1;stroke:#000000" />
    </g>
  </g>
</svg>
