<svg width="872" height="605" version="1.1" xmlns="http://www.w3.org/2000/svg">
<line id="svg_13" y2="36" x2="289" y1="36" x1="0" stroke=rgb(0,192,0) fill="none" stroke-width="8"/>
<line id="svg_13" y2="50" x2="289" y1="50" x1="0" stroke=rgb(192,0,0) fill="none" stroke-width="8"/>
<line id="svg_13" y2="64" x2="289" y1="64" x1="0" stroke=rgb(0,192,0) fill="none" stroke-width="8"/>
<line id="svg_13" y2="78" x2="289" y1="78" x1="0" stroke=rgb(192,0,0) fill="none" stroke-width="8"/>
<line id="svg_13" y2="36" x2="578" y1="36" x1="289" stroke=rgb(0,192,0) fill="none" stroke-width="8"/>
<line id="svg_13" y2="50" x2="578" y1="50" x1="289" stroke=rgb(192,0,0) fill="none" stroke-width="8"/>
<line id="svg_13" y2="64" x2="578" y1="64" x1="289" stroke=rgb(192,0,0) fill="none" stroke-width="8"/>
<line id="svg_13" y2="78" x2="578" y1="78" x1="289" stroke=rgb(0,192,0) fill="none" stroke-width="8"/>
<line id="svg_13" y2="36" x2="867" y1="36" x1="578" stroke=rgb(192,0,0) fill="none" stroke-width="8"/>
<line id="svg_13" y2="36" x2="0" y1="36" x1="0" stroke=rgb(192,0,0) fill="none" stroke-width="8"/>
<line id="svg_13" y2="50" x2="867" y1="50" x1="578" stroke=rgb(0,192,0) fill="none" stroke-width="8"/>
<line id="svg_13" y2="50" x2="0" y1="50" x1="0" stroke=rgb(0,192,0) fill="none" stroke-width="8"/>
<line id="svg_13" y2="64" x2="867" y1="64" x1="578" stroke=rgb(192,0,0) fill="none" stroke-width="8"/>
<line id="svg_13" y2="64" x2="0" y1="64" x1="0" stroke=rgb(192,0,0) fill="none" stroke-width="8"/>
<line id="svg_13" y2="78" x2="867" y1="78" x1="578" stroke=rgb(0,192,0) fill="none" stroke-width="8"/>
<line id="svg_13" y2="78" x2="0" y1="78" x1="0" stroke=rgb(0,192,0) fill="none" stroke-width="8"/>
</svg>